<svg width="40" height="38" viewBox="0 0 40 38" fill="none" xmlns="http://www.w3.org/2000/svg">
<path d="M12.1203 0.617604C9.0249 0.617604 5.91431 1.79948 3.54738 4.16632C-1.16292 8.87662 -1.18061 16.4844 3.48373 21.2232V21.2362L19.3958 37.1355C19.7311 37.4653 20.2688 37.4653 20.6041 37.1355L36.5162 21.2362C36.5162 21.2319 36.5162 21.2277 36.5162 21.2232C41.1805 16.4845 41.1629 8.8767 36.4525 4.16632C34.1141 1.8279 31.052 0.64452 27.9941 0.617604C25.1122 0.592197 22.316 1.46424 20.0063 3.49133C17.7256 1.48462 14.9706 0.617604 12.1203 0.617604ZM12.1203 2.33478C14.7488 2.33478 17.3637 3.33629 19.3959 5.33662C19.7312 5.6664 20.2689 5.6664 20.6042 5.33662C22.6604 3.31272 25.3211 2.31138 27.9816 2.33478C30.6045 2.35825 33.2163 3.37209 35.2317 5.38743C39.2911 9.44688 39.3019 15.9315 35.2826 20.0148L20.0064 35.3037L4.71759 20.0148C0.698224 15.9315 0.709041 9.44688 4.76841 5.38743C6.80807 3.34786 9.46495 2.33478 12.1203 2.33478Z" fill="#4C40F7"/>
<path d="M17.5901 11.2511C17.2643 11.2967 16.9929 11.5236 16.8905 11.8362L14.7791 18.1324H8.50843C8.03492 18.1375 7.65433 18.5238 7.65626 18.9973C7.65433 19.4708 8.03501 19.8571 8.50843 19.8622H15.4024C15.7709 19.8614 16.0981 19.6262 16.2164 19.2771L17.7046 14.8253L21.4823 26.1584C21.6382 26.608 22.1291 26.846 22.5786 26.6901C22.8279 26.6036 23.0239 26.4077 23.1103 26.1584L25.2217 19.8622H31.4924C31.9659 19.8571 32.3465 19.4708 32.3446 18.9973C32.3465 18.5238 31.9658 18.1375 31.4924 18.1324H24.5985C24.2218 18.1295 23.887 18.3716 23.7717 18.7302L22.2963 23.182L18.5186 11.8362C18.3894 11.4438 17.9999 11.1984 17.5901 11.2511Z" fill="#4C40F7"/>
</svg>
