<svg width="59" height="59" viewBox="0 0 59 59" fill="none" xmlns="http://www.w3.org/2000/svg">
<circle cx="29.5" cy="29.5" r="29.5" fill="#4C40F7"/>
<path d="M28.9626 25.8204H27.1667V24.0245C27.1667 23.8587 27.0324 23.7245 26.8667 23.7245H24.1304C23.9647 23.7245 23.8304 23.8587 23.8304 24.0245V25.8204H22.0344C21.8687 25.8204 21.7344 25.9546 21.7344 26.1204V28.8567C21.7344 29.0225 21.8687 29.1567 22.0344 29.1567H23.8304V30.9526C23.8304 31.1184 23.9647 31.2526 24.1304 31.2526H26.8667C27.0324 31.2526 27.1667 31.1184 27.1667 30.9526V29.1567H28.9626C29.1283 29.1567 29.2626 29.0225 29.2626 28.8567V26.1204C29.2626 25.9546 29.1283 25.8204 28.9626 25.8204ZM28.6626 28.5567H26.8667C26.7011 28.5567 26.5667 28.6909 26.5667 28.8567V30.6526H24.4304V28.8567C24.4304 28.6909 24.2961 28.5567 24.1304 28.5567H22.3344V26.4204H24.1304C24.2961 26.4204 24.4304 26.2862 24.4304 26.1204V24.3245H26.5667V26.1204C26.5667 26.2862 26.7011 26.4204 26.8667 26.4204H28.6626V28.5567Z" fill="white"/>
<path d="M18.3 37.9774H27V40.7C27 40.8658 27.1343 41 27.3 41H41.7C41.8657 41 42 40.8658 42 40.7V20.3226C42 20.1567 41.8657 20.0226 41.7 20.0226H39.5851V19.5603C40.1339 19.3382 40.4848 18.7666 40.4092 18.1604C40.3267 17.4989 39.7368 17 39.0373 17H35.7645C35.0648 17 34.4751 17.4989 34.3928 18.1604C34.3172 18.7666 34.668 19.3382 35.2169 19.5603V20.0226H33V17.3C33 17.1342 32.8657 17 32.7 17H18.3C18.1343 17 18 17.1342 18 17.3V37.6774C18 37.8433 18.1343 37.9774 18.3 37.9774ZM31.5442 37.9774L27.6 40.1732V37.9774H31.5442ZM34.9881 18.2349C35.0325 17.8789 35.3735 17.6 35.7645 17.6H39.0373C39.4283 17.6 39.7695 17.8789 39.8139 18.2349C39.8619 18.6207 39.6098 18.9685 39.2273 19.0435C39.0866 19.071 38.9851 19.1943 38.9851 19.3379V35.3044C38.9851 36.1704 38.2745 36.875 37.401 36.875C36.5275 36.875 35.8169 36.1704 35.8169 35.3044V19.3379C35.8169 19.1943 35.7154 19.071 35.5746 19.0435C35.1921 18.9685 34.94 18.6207 34.9881 18.2349ZM35.2169 20.6226V35.3044C35.2169 36.5012 36.1967 37.475 37.401 37.475C38.6052 37.475 39.5851 36.5012 39.5851 35.3044V20.6226H41.4V40.4H28.4263L32.8459 37.9396C32.8578 37.933 32.8651 37.9221 32.8758 37.9141C32.8926 37.9016 32.9088 37.8898 32.9226 37.8741C32.9355 37.8595 32.9447 37.8435 32.9543 37.827C32.9641 37.8105 32.9735 37.7947 32.98 37.7764C32.987 37.7566 32.9895 37.7366 32.9923 37.7157C32.994 37.7026 33 37.691 33 37.6774V20.6226H35.2169ZM18.6 17.6H32.4V37.3774H18.6V17.6Z" fill="white"/>
<path d="M37.8664 28.6842C38.0321 28.6842 38.1664 28.55 38.1664 28.3842V27.28C38.1664 27.1142 38.0321 26.98 37.8664 26.98C37.7007 26.98 37.5664 27.1142 37.5664 27.28V28.3842C37.5664 28.55 37.7007 28.6842 37.8664 28.6842Z" fill="white"/>
<path d="M37.8664 33.6421C38.0321 33.6421 38.1664 33.5079 38.1664 33.3421V30.0828C38.1664 29.917 38.0321 29.7828 37.8664 29.7828C37.7007 29.7828 37.5664 29.917 37.5664 30.0828V33.3421C37.5664 33.5079 37.7007 33.6421 37.8664 33.6421Z" fill="white"/>
</svg>
