<svg width="59" height="59" viewBox="0 0 59 59" fill="none" xmlns="http://www.w3.org/2000/svg">
<circle cx="29.5" cy="29.5" r="29.5" fill="#4C40F7"/>
<path d="M32.5 16.5H27.5C26.5054 16.5 25.5516 16.8951 24.8484 17.5983C24.1451 18.3016 23.75 19.2554 23.75 20.25V21.5H21.25C20.2554 21.5 19.3016 21.8951 18.5983 22.5984C17.8951 23.3016 17.5 24.2554 17.5 25.25V37.75C17.5 38.7446 17.8951 39.6984 18.5983 40.4017C19.3016 41.1049 20.2554 41.5 21.25 41.5H38.75C39.7446 41.5 40.6984 41.1049 41.4017 40.4017C42.1049 39.6984 42.5 38.7446 42.5 37.75V25.25C42.5 24.2554 42.1049 23.3016 41.4017 22.5984C40.6984 21.8951 39.7446 21.5 38.75 21.5H36.25V20.25C36.25 19.2554 35.8549 18.3016 35.1517 17.5983C34.4484 16.8951 33.4946 16.5 32.5 16.5ZM26.25 20.25C26.25 19.9185 26.3817 19.6005 26.6161 19.3661C26.8505 19.1317 27.1685 19 27.5 19H32.5C32.8315 19 33.1495 19.1317 33.3839 19.3661C33.6183 19.6005 33.75 19.9185 33.75 20.25V21.5H26.25V20.25ZM40 25.25V37.75C40 38.0815 39.8683 38.3995 39.6339 38.6339C39.3995 38.8683 39.0815 39 38.75 39H21.25C20.9185 39 20.6005 38.8683 20.3661 38.6339C20.1317 38.3995 20 38.0815 20 37.75V25.25C20 24.9185 20.1317 24.6005 20.3661 24.3661C20.6005 24.1317 20.9185 24 21.25 24H38.75C39.0815 24 39.3995 24.1317 39.6339 24.3661C39.8683 24.6005 40 24.9185 40 25.25Z" fill="white"/>
<path d="M31.25 27.75H28.75V30.25H26.25V32.75H28.75V35.25H31.25V32.75H33.75V30.25H31.25V27.75Z" fill="white"/>
</svg>
