<svg width="59" height="59" viewBox="0 0 59 59" fill="none" xmlns="http://www.w3.org/2000/svg">
<circle cx="29.5" cy="29.5" r="29.5" fill="#4C40F7"/>
<g clip-path="url(#clip0_1_197)">
<path d="M43.418 24.5872C42.5716 23.7412 41.0371 23.7678 40.1605 24.6439L38.4375 26.3669V17.2812C38.4375 15.9885 37.386 14.9375 36.0938 14.9375H23.4375C23.1889 14.9375 22.9504 15.0364 22.7747 15.2122L16.2122 21.7747C16.0364 21.9504 15.9375 22.1885 15.9375 22.4375V40.7188C15.9375 42.0115 16.989 43.0625 18.2812 43.0625H36.0938C37.386 43.0625 38.4375 42.0115 38.4375 40.7188V32.7683L43.3612 27.8446C44.2749 26.9309 44.3005 25.4697 43.418 24.5872ZM39.0051 28.4507L39.5544 29L33.7624 34.7916L32.6637 35.3409L33.213 34.2432L39.0051 28.4507ZM22.5 18.1382V21.0312C22.5 21.2858 22.2853 21.5 22.0312 21.5H19.1382L22.5 18.1382ZM36.5625 40.7188C36.5625 40.9733 36.3478 41.1875 36.0938 41.1875H18.2812C18.0272 41.1875 17.8125 40.9733 17.8125 40.7188V23.375H22.0312C23.3235 23.375 24.375 22.324 24.375 21.0312V16.8125H36.0938C36.3478 16.8125 36.5625 17.0267 36.5625 17.2812V28.2419L31.7798 33.0247C31.7084 33.0961 31.6493 33.1785 31.604 33.2682L29.729 37.0182C29.5486 37.3789 29.6196 37.8147 29.9048 38.1003C30.0847 38.2807 30.3246 38.375 30.5681 38.375C30.71 38.375 30.8537 38.343 30.9869 38.2761L34.7369 36.4011C34.8271 36.3563 34.9095 36.2968 34.9805 36.2253L36.5625 34.6433V40.7188ZM42.0355 26.5189L40.8801 27.6743L40.3308 27.125L41.4862 25.9696C41.6368 25.8195 41.8698 25.6913 42.0923 25.9128C42.2411 26.0621 42.215 26.3395 42.0355 26.5189ZM24.1003 26.4622C24.4666 26.8284 24.4666 27.4216 24.1003 27.7878L22.2253 29.6628C22.0422 29.8459 21.8024 29.9375 21.5625 29.9375C21.3226 29.9375 21.0828 29.8459 20.8997 29.6628L19.9622 28.7253C19.5959 28.3591 19.5959 27.7659 19.9622 27.3997C20.3284 27.0334 20.9216 27.0334 21.2878 27.3997L21.5625 27.6743L22.7747 26.4622C23.1409 26.0959 23.7341 26.0959 24.1003 26.4622ZM24.1003 31.1497C24.4666 31.5159 24.4666 32.1091 24.1003 32.4753L22.2253 34.3503C22.0422 34.5334 21.8024 34.625 21.5625 34.625C21.3226 34.625 21.0828 34.5334 20.8997 34.3503L19.9622 33.4128C19.5959 33.0466 19.5959 32.4534 19.9622 32.0872C20.3284 31.7209 20.9216 31.7209 21.2878 32.0872L21.5625 32.3618L22.7747 31.1497C23.1409 30.7834 23.7341 30.7834 24.1003 31.1497ZM24.1003 35.8372C24.4666 36.2034 24.4666 36.7966 24.1003 37.1628L22.2253 39.0378C22.0422 39.2209 21.8024 39.3125 21.5625 39.3125C21.3226 39.3125 21.0828 39.2209 20.8997 39.0378L19.9622 38.1003C19.5959 37.7341 19.5959 37.1409 19.9622 36.7747C20.3284 36.4084 20.9216 36.4084 21.2878 36.7747L21.5625 37.0493L22.7747 35.8372C23.1409 35.4709 23.7341 35.4709 24.1003 35.8372ZM25.3125 28.0625C25.3125 27.5443 25.7323 27.125 26.25 27.125H33.75C34.2677 27.125 34.6875 27.5443 34.6875 28.0625C34.6875 28.5807 34.2677 29 33.75 29H26.25C25.7323 29 25.3125 28.5807 25.3125 28.0625ZM29.0625 33.6875H26.25C25.7323 33.6875 25.3125 33.2682 25.3125 32.75C25.3125 32.2318 25.7323 31.8125 26.25 31.8125H29.0625C29.5802 31.8125 30 32.2318 30 32.75C30 33.2682 29.5802 33.6875 29.0625 33.6875ZM29.0625 37.4375C29.0625 37.9557 28.6427 38.375 28.125 38.375H26.25C25.7323 38.375 25.3125 37.9557 25.3125 37.4375C25.3125 36.9193 25.7323 36.5 26.25 36.5H28.125C28.6427 36.5 29.0625 36.9193 29.0625 37.4375Z" fill="white"/>
</g>
<defs>
<clipPath id="clip0_1_197">
<rect width="30" height="30" fill="white" transform="translate(15 14)"/>
</clipPath>
</defs>
</svg>
